<?xml version="1.0" standalone="no"?>
<!DOCTYPE svg PUBLIC "-//W3C//DTD SVG 20010904//EN"
 "http://www.w3.org/TR/2001/REC-SVG-20010904/DTD/svg10.dtd">
<svg version="1.0" xmlns="http://www.w3.org/2000/svg"
 width="900.000000pt" height="216.000000pt" viewBox="0 0 900.000000 216.000000"
 preserveAspectRatio="xMidYMid meet">
<metadata>
Created by potrace 1.10, written by Peter Selinger 2001-2011
</metadata>
<g transform="translate(0.000000,216.000000) scale(0.100000,-0.100000)"
fill="#000000" stroke="none">
<path d="M4581 1830 c-72 -26 -135 -77 -196 -158 -47 -63 -57 -81 -90 -157
-45 -103 -75 -241 -75 -344 0 -108 -11 -134 -86 -200 -75 -66 -166 -87 -233
-53 -57 28 -76 64 -75 136 2 70 10 91 61 147 44 49 119 74 173 59 59 -17 82
-12 112 23 47 54 34 81 -57 123 -67 32 -170 33 -249 3 -63 -24 -161 -100 -187
-144 -31 -52 -59 -117 -59 -136 0 -35 -32 -114 -64 -156 -43 -58 -86 -81 -121
-65 -26 12 -26 15 -22 80 2 37 15 103 27 147 13 44 24 105 24 134 l1 55 -50
24 c-27 14 -63 30 -80 37 -124 51 -135 58 -141 91 -15 80 -98 112 -149 57 -20
-22 -25 -38 -25 -79 0 -28 5 -66 11 -83 14 -39 -2 -188 -27 -261 -49 -142
-119 -225 -170 -201 -22 10 -24 17 -24 77 0 62 6 105 45 324 9 52 10 79 3 88
-13 15 -140 16 -183 1 -26 -10 -37 -8 -73 10 -52 26 -153 28 -214 4 -58 -23
-139 -83 -174 -130 -41 -54 -58 -88 -83 -169 -35 -110 -110 -178 -226 -202
-78 -17 -175 14 -175 55 0 9 14 13 43 13 99 0 234 71 286 151 29 44 34 60 34
115 1 56 -3 68 -29 101 -17 20 -50 48 -73 61 -38 21 -53 23 -130 20 -102 -4
-169 -33 -253 -108 -59 -53 -118 -158 -118 -211 0 -45 -26 -93 -76 -139 -41
-38 -91 -66 -101 -56 -2 2 9 23 25 47 46 70 62 122 62 205 0 159 -100 264
-253 264 -67 0 -116 -16 -174 -57 -41 -30 -51 -29 -55 5 -3 27 -4 27 -85 30
-77 3 -83 1 -97 -21 -9 -13 -18 -46 -21 -73 -3 -27 -12 -87 -20 -134 -17 -103
-38 -229 -60 -370 -25 -163 -45 -288 -61 -376 -20 -113 -19 -114 82 -114 74 0
84 2 98 22 9 12 16 36 16 52 0 16 7 70 15 120 9 50 23 134 31 186 50 319 67
380 138 473 45 60 143 97 181 69 55 -38 68 -109 38 -198 -35 -106 -96 -150
-190 -138 -51 6 -52 6 -73 -27 -13 -21 -19 -47 -18 -68 3 -31 7 -36 53 -52 73
-25 269 -25 350 0 90 29 116 41 167 83 26 21 49 38 52 38 2 0 25 -20 50 -44
72 -68 125 -90 233 -94 121 -5 208 22 300 96 l40 31 37 -45 c54 -65 99 -84
193 -83 83 0 120 13 204 73 l41 30 24 -31 c42 -54 83 -73 156 -73 107 0 178
42 249 145 49 71 88 171 104 270 4 22 11 62 17 88 9 46 11 48 37 42 67 -17 72
-44 30 -180 -11 -38 -23 -102 -26 -141 -4 -62 -2 -77 19 -115 15 -27 44 -57
74 -76 43 -29 57 -33 117 -33 78 0 119 17 192 80 25 22 47 40 48 40 1 0 23
-19 49 -43 62 -56 122 -77 225 -77 103 0 175 28 265 101 51 43 74 48 82 21 9
-28 65 -81 108 -103 48 -25 164 -26 228 -2 25 9 66 33 92 55 26 21 52 38 58
38 6 0 32 -17 58 -38 66 -54 121 -72 222 -72 108 0 183 26 271 93 45 33 67 34
79 3 5 -14 33 -41 62 -60 49 -34 58 -36 130 -36 86 0 128 14 195 67 23 18 46
33 51 33 6 0 20 -12 32 -27 43 -55 83 -73 162 -73 51 0 80 5 96 16 16 11 33
14 55 9 77 -16 145 -17 176 -1 26 14 31 22 31 54 1 55 34 169 74 256 37 78
119 176 148 176 47 0 59 -58 33 -165 -8 -33 -14 -94 -15 -135 0 -90 18 -130
79 -177 39 -30 49 -33 112 -33 81 0 119 16 192 80 l48 43 32 -31 c18 -17 57
-43 87 -59 73 -37 211 -45 293 -17 100 35 195 108 256 198 55 81 61 98 95 271
12 57 14 60 40 58 47 -3 59 -21 53 -78 -3 -27 -15 -81 -27 -120 -42 -139 -37
-204 23 -271 65 -75 178 -97 275 -53 89 41 197 185 217 292 7 34 6 37 -31 52
-56 23 -75 14 -103 -47 -31 -68 -82 -132 -120 -147 -25 -11 -33 -10 -55 4 -31
21 -34 60 -11 142 74 263 75 259 -52 312 -153 65 -167 74 -174 111 -9 43 -50
80 -89 80 -16 0 -42 -11 -60 -27 -30 -25 -31 -28 -26 -82 16 -149 17 -181 6
-251 -7 -41 -23 -95 -36 -120 -24 -48 -89 -115 -139 -142 -71 -39 -195 -39
-237 -1 -30 27 -22 43 22 43 97 0 234 70 287 148 29 42 32 55 33 116 0 61 -3
72 -31 107 -46 59 -106 81 -204 77 -97 -5 -163 -33 -247 -108 -60 -53 -117
-154 -119 -208 -1 -63 -73 -183 -123 -203 -26 -11 -31 -10 -48 11 -21 27 -21
52 4 242 24 177 -29 268 -155 268 -64 0 -100 -14 -164 -66 -23 -19 -44 -34
-47 -34 -3 0 -6 13 -6 28 0 44 -16 52 -101 52 -92 0 -98 -5 -110 -97 -13 -110
-39 -237 -49 -247 -6 -6 -10 -16 -10 -24 0 -26 -64 -111 -97 -129 -32 -17 -33
-17 -55 5 -16 16 -22 33 -22 61 1 37 5 59 40 256 8 50 14 108 12 130 l-3 40
-79 3 c-57 2 -83 -1 -95 -12 -14 -12 -22 -11 -66 10 -76 36 -173 33 -251 -6
-117 -59 -207 -171 -229 -287 -25 -127 -206 -236 -330 -198 -86 26 -105 65
-30 65 53 0 161 38 215 75 148 103 145 282 -7 359 -43 22 -163 21 -223 -1 -98
-36 -183 -109 -232 -198 -23 -43 -48 -133 -48 -175 0 -28 -8 -44 -37 -72 -104
-101 -206 -66 -246 84 -20 76 -16 95 22 105 41 10 111 48 167 90 137 103 214
249 214 409 0 68 -4 87 -23 114 -47 70 -128 93 -216 60z m70 -181 c24 -47 -43
-203 -120 -279 -26 -25 -78 -60 -90 -60 -33 0 24 163 96 272 59 90 91 109 114
67z m-2746 -405 c40 -40 -25 -119 -125 -152 -65 -22 -86 -17 -75 19 34 105
150 182 200 133z m707 -11 c24 -21 23 -65 -2 -137 -36 -100 -89 -166 -150
-186 -34 -11 -44 -11 -67 1 -61 33 -80 118 -44 202 25 59 85 125 125 137 42
12 115 4 138 -17z m2509 17 c52 -28 -13 -122 -107 -154 -77 -26 -88 -23 -79
22 7 37 28 68 74 107 43 36 77 43 112 25z m722 -23 c11 -14 15 -31 12 -47 -17
-76 -25 -99 -44 -138 -32 -63 -88 -120 -130 -133 -47 -14 -96 8 -112 49 -16
40 -4 157 20 195 28 46 79 89 115 98 50 12 119 0 139 -24z m1576 24 c8 -5 14
-24 13 -42 -1 -42 -54 -91 -122 -113 -92 -30 -107 -19 -71 52 43 83 131 134
180 103z"/>
</g>
</svg>
